<?xml version="1.0" encoding="UTF-8"?>
<svg version="1.1" xmlns="http://www.w3.org/2000/svg" width="577" height="433">
<path d="M0 0 C1.23943359 0.38526855 1.23943359 0.38526855 2.50390625 0.77832031 C7.70909547 2.41318414 12.86423894 4.15922543 18 6 C18 6.66 18 7.32 18 8 C18.85851562 8.09667969 19.71703125 8.19335938 20.6015625 8.29296875 C32.37958874 10.74333973 43.13727854 20.55919816 52.4128418 27.79833984 C53.89947864 28.92389384 55.44850821 29.96567214 57 31 C57 31.66 57 32.32 57 33 C57.99 33.33 58.98 33.66 60 34 C60 34.66 60 35.32 60 36 C60.99 36.33 61.98 36.66 63 37 C63 37.66 63 38.32 63 39 C63.99 39.33 64.98 39.66 66 40 C66 40.66 66 41.32 66 42 C66.66 42 67.32 42 68 42 C69.61547939 43.83840944 71.09554968 45.67231006 72.5625 47.625 C73.22523926 48.49983032 73.22523926 48.49983032 73.90136719 49.39233398 C98.54110246 82.35523466 108.18605491 121.05409693 102.6875 161.83203125 C100.82415167 173.95765959 96.17167645 185.51398418 92 197 C91.34 197 90.68 197 90 197 C89.9175 197.84304688 89.835 198.68609375 89.75 199.5546875 C88.87151112 203.59024581 87.15867492 206.66705993 85 210.125 C84.60353271 210.77154541 84.20706543 211.41809082 83.79858398 212.08422852 C79.93125857 218.29068046 75.83972642 224.50542688 71 230 C70.34 230 69.68 230 69 230 C68.67 230.99 68.34 231.98 68 233 C67.34 233 66.68 233 66 233 C65.773125 233.556875 65.54625 234.11375 65.3125 234.6875 C63.62449964 237.66159588 61.53323483 239.72008865 59 242 C58.34 242 57.68 242 57 242 C56.67 242.99 56.34 243.98 56 245 C55.34 245 54.68 245 54 245 C54 245.66 54 246.32 54 247 C52.5390625 248.2890625 52.5390625 248.2890625 50.625 249.625 C49.99851562 250.07101562 49.37203125 250.51703125 48.7265625 250.9765625 C47 252 47 252 45 252 C45 252.66 45 253.32 45 254 C21.90643852 267.58807503 21.90643852 267.58807503 12 271 C10.7625 271.42667969 9.525 271.85335938 8.25 272.29296875 C-7.01505501 277.34230586 -21.23454019 279.55926178 -37.25 279.4375 C-38.0612735 279.43545563 -38.872547 279.43341125 -39.70840454 279.43130493 C-51.89863909 279.38128031 -63.26926183 278.53989235 -75 275 C-75.96421875 274.74992187 -76.9284375 274.49984375 -77.921875 274.2421875 C-100.03198912 268.26833679 -119.79835066 255.93011332 -136 240 C-136.47373047 239.53464844 -136.94746094 239.06929687 -137.43554688 238.58984375 C-140.31670145 235.75216338 -143.16486416 232.88355372 -146 230 C-146.87978516 229.21109375 -146.87978516 229.21109375 -147.77734375 228.40625 C-149 227 -149 227 -149 224 C-149.99 223.67 -150.98 223.34 -152 223 C-153.55638762 220.92185196 -154.94694581 218.88563159 -156.3125 216.6875 C-156.70840332 216.06029053 -157.10430664 215.43308105 -157.51220703 214.78686523 C-164.02782025 204.30183357 -169.21788468 193.20445131 -172.75 181.375 C-172.98332031 180.63765625 -173.21664062 179.9003125 -173.45703125 179.140625 C-174.66541176 175.10304223 -175.44648969 172.12098886 -174 168 C-171.45208344 164.26912218 -168.50074839 161.80059871 -165 159 C-164.34 158.175 -163.68 157.35 -163 156.5 C-160.89680365 153.87100457 -158.62100457 152.09680365 -156 150 C-155.34 149.175 -154.68 148.35 -154 147.5 C-151.899745 144.87468125 -149.62293491 143.08489698 -147 141 C-145.23676495 138.87396815 -145.23676495 138.87396815 -144 137 C-144.7425 136.443125 -145.485 135.88625 -146.25 135.3125 C-148.93076748 133.05821825 -150.82076343 130.72404571 -153 128 C-153.825 127.34 -154.65 126.68 -155.5 126 C-158.12899543 123.89680365 -159.90319635 121.62100457 -162 119 C-163.2375 118.01 -163.2375 118.01 -164.5 117 C-167.13371001 114.89303199 -168.93963033 112.65854151 -171 110 C-171.763125 109.38125 -172.52625 108.7625 -173.3125 108.125 C-175 106 -175 106 -175 103.0625 C-173.07783922 94.03416905 -170.02572927 85.29158976 -166 77 C-165.58105469 76.08863281 -165.16210938 75.17726563 -164.73046875 74.23828125 C-160.91749468 66.20267474 -156.18281179 59.18285789 -151 52 C-150.50113281 51.27425781 -150.00226563 50.54851562 -149.48828125 49.80078125 C-146.96358481 46.12921955 -144.1671539 43.12044072 -141 40 C-140.24460938 39.22140625 -139.48921875 38.4428125 -138.7109375 37.640625 C-121.68833184 20.2194968 -101.01575032 6.36935141 -77.12231445 0.53735352 C-75.19020974 0.04815963 -73.27526842 -0.50760092 -71.36328125 -1.0703125 C-49.55346643 -7.01644914 -21.55672711 -6.87790603 0 0 Z M-125.75 86.125 C-127.6784994 89.0177491 -127.82235346 91.56550021 -128 95 C-126.9945632 99.02174719 -125.52916071 100.86111472 -122 103 C-118.68455701 104.10514766 -115.79589889 104.32107631 -112.3125 104.5625 C-111.13300781 104.64628906 -109.95351562 104.73007813 -108.73828125 104.81640625 C-107.38283203 104.90728516 -107.38283203 104.90728516 -106 105 C-103.23118841 114.30791982 -100.52718135 123.62919402 -97.94433594 132.99047852 C-96.34666508 138.77308397 -94.71337111 144.54486587 -93.0625 150.3125 C-92.81411377 151.18060303 -92.56572754 152.04870605 -92.30981445 152.94311523 C-90.99464546 157.53584271 -89.67583909 162.12751547 -88.35546875 166.71875 C-87.9521936 168.12386841 -87.9521936 168.12386841 -87.54077148 169.55737305 C-87.02974963 171.33782432 -86.51761975 173.11795811 -86.00415039 174.89770508 C-84.56634667 179.90991762 -83.23587039 184.93409732 -82 190 C-79.69 190.33 -77.38 190.66 -75 191 C-74.01 193.64 -73.02 196.28 -72 199 C-71.34 199 -70.68 199 -70 199 C-69.67 199.99 -69.34 200.98 -69 202 C-63.94239152 204.83226075 -60.76462705 205.57217101 -55 204 C-50.15309027 201.48333533 -47.92012695 199.12033852 -46 194 C-46 192.68 -46 191.36 -46 190 C-38.74 190 -31.48 190 -24 190 C-23.67 191.98 -23.34 193.96 -23 196 C-20.84897321 199.56689252 -18.10250194 202.32153727 -14.5625 204.5 C-10.38356906 205.31540116 -6.7237154 204.62245278 -2.75 203.1875 C0.13425326 201.23032814 1.71103405 199.45038681 2.40625 195.9609375 C2.6582308 193.98008847 2.83417381 191.98991429 3 190 C5.64 190 8.28 190 11 190 C11.50990093 187.98164215 12.00744664 185.96016125 12.5 183.9375 C12.7784375 182.81214844 13.056875 181.68679688 13.34375 180.52734375 C14.21339257 176.45099343 14.21339257 176.45099343 14 170 C-12.07 170 -38.14 170 -65 170 C-65.66 166.37 -66.32 162.74 -67 159 C-67.33 157.35 -67.66 155.7 -68 154 C-37.97 154 -7.94 154 23 154 C24.78488753 148.6453374 26.27431332 143.98910847 27.40234375 138.5859375 C28.4199633 134.18290388 29.72869371 129.86269685 31 125.52734375 C32.08293995 121.7074423 33.03702648 117.85189408 34 114 C35.32 108.72 36.64 103.44 38 98 C-0.28 98 -38.56 98 -78 98 C-78.495 95.03 -78.495 95.03 -79 92 C-80.45504302 89.21643944 -81.78069127 87.21930873 -84 85 C-87.9537109 83.88933789 -91.78640458 83.8710343 -95.875 83.8671875 C-97.18984375 83.86589844 -98.5046875 83.86460937 -99.859375 83.86328125 C-100.8793457 83.86642334 -100.8793457 83.86642334 -101.91992188 83.86962891 C-103.99356399 83.87498338 -106.06698955 83.86966923 -108.140625 83.86328125 C-109.45546875 83.86457031 -110.7703125 83.86585938 -112.125 83.8671875 C-113.32382813 83.86831543 -114.52265625 83.86944336 -115.7578125 83.87060547 C-121.01815616 84.07426462 -121.01815616 84.07426462 -125.75 86.125 Z " fill="#2FCC42" transform="translate(324,79)"/>
<path d="M0 0 C2.41396234 2.89675481 4.38617243 5.59787701 6 9 C6.94769257 8.98081009 7.89538513 8.96162018 8.87179565 8.94184875 C17.78891089 8.76325535 26.70619217 8.60051184 35.6238842 8.45341206 C40.20892325 8.37726756 44.79371862 8.29547863 49.37841797 8.20092773 C53.80025971 8.10994088 58.22213091 8.03360101 62.64441299 7.96755028 C64.33425502 7.93970988 66.02401753 7.90653014 67.71364975 7.86800575 C70.07457656 7.81507448 72.43506934 7.78088348 74.79638672 7.7512207 C75.49985229 7.73108414 76.20331787 7.71094757 76.92810059 7.69020081 C78.87423706 7.67720032 78.87423706 7.67720032 82 8 C85.07136554 12.60704832 83.59747277 17.0551811 82.78125 22.30078125 C81.85931092 26.6661628 80.61105823 29.43155375 78 33 C75.69 32.67 73.38 32.34 71 32 C70.67 33.98 70.34 35.96 70 38 C68.95550089 34.86650268 69.06576355 34.01031744 70 31 C72.64 31 75.28 31 78 31 C78.185625 29.1128125 78.185625 29.1128125 78.375 27.1875 C79.02886403 21.76042858 80.02215515 16.37814669 81 11 C54.93 11 28.86 11 2 11 C0 4 0 4 0 0 Z " fill="#3DC14D" transform="translate(257,238)"/>
<path d="M0 0 C1.70420919 3.40841838 2.43653837 5.54219403 3.0625 9.1875 C3.21847656 10.06792969 3.37445313 10.94835937 3.53515625 11.85546875 C4.60119953 19.06693799 5.1947734 26.14518447 5.1875 33.4375 C5.18669434 34.29424316 5.18588867 35.15098633 5.18505859 36.03369141 C5.1289838 42.01830103 4.77266166 47.92580932 4.125 53.875 C4.04660889 54.60517334 3.96821777 55.33534668 3.88745117 56.08764648 C3.37837563 60.2700706 2.47193646 64.05422074 1 68 C0.67 68 0.34 68 0 68 C0 65.03 0 62.06 0 59 C0.33 59 0.66 59 1 59 C1 42.83 1 26.66 1 10 C0.67 10 0.34 10 0 10 C0 6.7 0 3.4 0 0 Z " fill="#63D06F" transform="translate(423,183)"/>
<path d="M0 0 C2.47960136 0.14024219 4.95852402 0.2869185 7.4375 0.4375 C8.14455078 0.47681641 8.85160156 0.51613281 9.58007812 0.55664062 C14.88671875 0.88671875 14.88671875 0.88671875 16 2 C18.44192101 2.21208482 20.86588578 2.37641051 23.3125 2.5 C30.50515787 2.86955616 30.50515787 2.86955616 32.88842773 3.49780273 C35.42457721 4.10097761 37.81708821 4.21510899 40.421875 4.31640625 C41.95908203 4.37924805 41.95908203 4.37924805 43.52734375 4.44335938 C44.59082031 4.48267578 45.65429688 4.52199219 46.75 4.5625 C47.82894531 4.60568359 48.90789062 4.64886719 50.01953125 4.69335938 C52.67956428 4.79928989 55.33968812 4.90136421 58 5 C58 5.33 58 5.66 58 6 C15.86468213 6.86417785 15.86468213 6.86417785 2 2 C1.34 1.34 0.68 0.68 0 0 Z " fill="#73D37D" transform="translate(247,352)"/>
<path d="M0 0 C2.71595986 3.1540179 3.96846241 4.87384964 5 9 C43.115 9.495 43.115 9.495 82 10 C81.67 11.32 81.34 12.64 81 14 C81 13.01 81 12.02 81 11 C54.93 11 28.86 11 2 11 C0 4 0 4 0 0 Z " fill="#77CB80" transform="translate(257,238)"/>
<path d="M0 0 C0.8098938 -0.0033284 1.6197876 -0.0066568 2.45422363 -0.01008606 C4.16560295 -0.01514584 5.87699212 -0.01749468 7.58837891 -0.01733398 C10.20882342 -0.01952296 12.82884858 -0.03769523 15.44921875 -0.05664062 C17.11197773 -0.05957422 18.7747387 -0.06155924 20.4375 -0.0625 C21.22193481 -0.06968552 22.00636963 -0.07687103 22.8145752 -0.08427429 C26.6503974 -0.06812697 28.45029829 -0.01099906 31.71875 2.16796875 C18.84875 2.16796875 5.97875 2.16796875 -7.28125 2.16796875 C-7.61125 3.15796875 -7.94125 4.14796875 -8.28125 5.16796875 C-8.94125 5.16796875 -9.60125 5.16796875 -10.28125 5.16796875 C-10.49592984 10.6423047 -10.42497513 14.77689072 -6.65625 18.98046875 C-6.2025 19.37234375 -5.74875 19.76421875 -5.28125 20.16796875 C-6.27125 20.49796875 -7.26125 20.82796875 -8.28125 21.16796875 C-8.61125 20.17796875 -8.94125 19.18796875 -9.28125 18.16796875 C-10.93125 18.16796875 -12.58125 18.16796875 -14.28125 18.16796875 C-14.40625 11.41796875 -14.40625 11.41796875 -13.28125 9.16796875 C-12.62125 9.16796875 -11.96125 9.16796875 -11.28125 9.16796875 C-11.28125 6.52796875 -11.28125 3.88796875 -11.28125 1.16796875 C-7.49763222 -0.09323718 -3.94241158 0.00559283 0 0 Z " fill="#8CE097" transform="translate(207.28125,161.83203125)"/>
<path d="M0 0 C22.80985721 -0.46782069 43.19161065 -0.44837477 65 7 C64.01 7.66 63.02 8.32 62 9 C62 8.34 62 7.68 62 7 C61.32195312 6.95101562 60.64390625 6.90203125 59.9453125 6.8515625 C44.35177744 5.59889625 44.35177744 5.59889625 38.87963867 2.98852539 C35.13504126 1.70307606 31.55220074 1.64531986 27.63671875 1.5859375 C26.84473587 1.56657135 26.05275299 1.5472052 25.23677063 1.5272522 C22.72045481 1.46772768 20.20409256 1.42118042 17.6875 1.375 C15.9758921 1.33679519 14.26430291 1.29774201 12.55273438 1.2578125 C8.36864251 1.1620487 4.18446069 1.0779182 0 1 C0 0.67 0 0.34 0 0 Z " fill="#90D899" transform="translate(268,75)"/>
<path d="M0 0 C1.98 0 3.96 0 6 0 C6.391875 1.2375 6.78375 2.475 7.1875 3.75 C9.06096666 8.72831986 11.77190236 10.76868288 16.375 13.3125 C20.80958337 14.4739385 24.72941051 13.42352983 29 12 C28.67 12.99 28.34 13.98 28 15 C21.74161722 17.08612759 16.12428709 16.08225761 10 14 C9.34 13.67 8.68 13.34 8 13 C8 12.34 8 11.68 8 11 C7.01 11.33 6.02 11.66 5 12 C5 8.37 5 4.74 5 1 C3.35 1 1.7 1 0 1 C0 0.67 0 0.34 0 0 Z " fill="#73D47E" transform="translate(243,269)"/>
<path d="M0 0 C0.33 0 0.66 0 1 0 C1.24887295 2.10192697 1.4734719 4.20673964 1.6875 6.3125 C1.81511719 7.48425781 1.94273437 8.65601563 2.07421875 9.86328125 C1.98577981 13.60099 1.52947856 13.56665364 -1 16 C-1.7721866 18.67994174 -2.42866054 21.27887477 -3 24 C-4.82474227 32.69072165 -4.82474227 32.69072165 -8 35 C-7.71561048 33.10306139 -7.42216208 31.20747973 -7.125 29.3125 C-6.96257812 28.25675781 -6.80015625 27.20101562 -6.6328125 26.11328125 C-6 23 -6 23 -5.0625 20.6875 C-3.52265246 16.79259153 -2.74632102 12.77625455 -1.875 8.6875 C-1.69324219 7.85154297 -1.51148438 7.01558594 -1.32421875 6.15429688 C-0.87894635 4.10370028 -0.4389448 2.05196038 0 0 Z " fill="#84D78F" transform="translate(356,195)"/>
<path d="M0 0 C0.66 0.33 1.32 0.66 2 1 C1.67 1.99 1.34 2.98 1 4 C0.01 4 -0.98 4 -2 4 C-4.31293038 8.47578512 -4.06054199 12.43878518 -3.625 17.3125 C-3.56828125 18.05306641 -3.5115625 18.79363281 -3.453125 19.55664062 C-3.31258589 21.37193743 -3.15772905 23.18611597 -3 25 C-6.61306229 20.54322811 -8.14275284 16.06918597 -7.875 10.3125 C-6.28555189 6.11181572 -3.21467942 3.05394545 0 0 Z " fill="#6BCE78" transform="translate(157,239)"/>
<path d="M0 0 C7.26 0 14.52 0 22 0 C22.99 2.64 23.98 5.28 25 8 C26.54231865 10.39701261 26.54231865 10.39701261 28 12 C25.525 11.505 25.525 11.505 23 11 C23 10.34 23 9.68 23 9 C22.01 8.67 21.02 8.34 20 8 C20.33 5.69 20.66 3.38 21 1 C14.4 1 7.8 1 1 1 C0.67 1.66 0.34 2.32 0 3 C0 2.01 0 1.02 0 0 Z " fill="#9CE2A6" transform="translate(278,269)"/>
<path d="M0 0 C0.33 0 0.66 0 1 0 C1.474377 7.28695785 1.28670939 11.97181491 -3 18 C-5.31 17.67 -7.62 17.34 -10 17 C-10.33 18.98 -10.66 20.96 -11 23 C-12.04449911 19.86650268 -11.93423645 19.01031744 -11 16 C-8.36 16 -5.72 16 -3 16 C-2.95101563 15.43152344 -2.90203125 14.86304688 -2.8515625 14.27734375 C-2.36856919 9.28918871 -1.52361837 4.77400422 0 0 Z " fill="#7FD78A" transform="translate(338,253)"/>
<path d="M0 0 C5.28 0.33 10.56 0.66 16 1 C19 8 19 8 18.6875 10.4375 C18.460625 10.953125 18.23375 11.46875 18 12 C15 6.375 15 6.375 15 3 C10.05 3 5.1 3 0 3 C0 2.01 0 1.02 0 0 Z " fill="#71CF7F" transform="translate(202,182)"/>
<path d="M0 0 C0.66 0.33 1.32 0.66 2 1 C1.82701599 3.33528415 1.29774631 4.69177582 -0.33203125 6.37890625 C-4.57211538 10 -4.57211538 10 -7 10 C-7.33 10.99 -7.66 11.98 -8 13 C-11.0625 14.1875 -11.0625 14.1875 -14 15 C-10.46037668 10.61760922 -6.8087294 6.7995281 -2.41796875 3.26171875 C-0.8630558 2.03520707 -0.8630558 2.03520707 0 0 Z " fill="#5BCF69" transform="translate(196,106)"/>
<path d="M0 0 C-0.33 0.99 -0.66 1.98 -1 3 C-5.62 3 -10.24 3 -15 3 C-15 3.66 -15 4.32 -15 5 C-24.41002278 7.29612756 -24.41002278 7.29612756 -29 7 C-26.13923762 4.13923762 -22.83929818 3.84109811 -19 3 C-17.28490234 2.60748047 -17.28490234 2.60748047 -15.53515625 2.20703125 C-4.77530274 -0.19784682 -4.77530274 -0.19784682 0 0 Z " fill="#81D68D" transform="translate(268,76)"/>
<path d="M0 0 C5.10281739 0.49254994 8.52089194 3.04540988 12.625 5.875 C13.29273438 6.32230469 13.96046875 6.76960938 14.6484375 7.23046875 C17.70806589 9.3048968 20.43752074 11.31896841 23 14 C22.01 14.33 21.02 14.66 20 15 C19.34 14.01 18.68 13.02 18 12 C16.00827818 11.30899447 14.00838196 10.64097297 12 10 C11.67 9.34 11.34 8.68 11 8 C10.01 7.505 9.02 7.01 8 6.5 C5 5 5 5 4 3 C1.97536745 2.34786708 1.97536745 2.34786708 0 2 C0 1.34 0 0.68 0 0 Z " fill="#75D282" transform="translate(349,90)"/>
<path d="M0 0 C5.445 1.485 5.445 1.485 11 3 C11 3.66 11 4.32 11 5 C13.31 5.33 15.62 5.66 18 6 C18 6.66 18 7.32 18 8 C12.90167878 8.37649141 9.17374746 7.10818776 4.625 5 C3.98433594 4.71382813 3.34367188 4.42765625 2.68359375 4.1328125 C1.11792837 3.4317683 -0.44169156 2.71724882 -2 2 C-1.34 1.34 -0.68 0.68 0 0 Z " fill="#74D27E" transform="translate(229,344)"/>
<path d="M0 0 C0.99 0.33 1.98 0.66 3 1 C3 1.66 3 2.32 3 3 C-0.46153846 6 -0.46153846 6 -3 6 C-3.33 6.99 -3.66 7.98 -4 9 C-4.66 9 -5.32 9 -6 9 C-6 9.66 -6 10.32 -6 11 C-8.31 12.32 -10.62 13.64 -13 15 C-13 14.01 -13 13.02 -13 12 C-12.34 12 -11.68 12 -11 12 C-10.34 10.68 -9.68 9.36 -9 8 C-7.68 8 -6.36 8 -5 8 C-5 6.68 -5 5.36 -5 4 C-3.68 4 -2.36 4 -1 4 C-0.67 2.68 -0.34 1.36 0 0 Z " fill="#64D074" transform="translate(384,315)"/>
<path d="M0 0 C-2.64738916 1.4606285 -3.89448334 2 -7 2 C-7.33 3.32 -7.66 4.64 -8 6 C-11.43515002 6.62457273 -14.49064814 7 -18 7 C-18 7.66 -18 8.32 -18 9 C-19.32 8.67 -20.64 8.34 -22 8 C-3.75 -1.125 -3.75 -1.125 0 0 Z " fill="#7ED788" transform="translate(237,85)"/>
<path d="M0 0 C0.33 0 0.66 0 1 0 C1.4969092 8.11618358 -1.46137892 13.58332882 -6 20 C-7.4146816 15.75595521 -5.6963296 12.84871797 -4.125 8.875 C-3.84269531 8.13378906 -3.56039062 7.39257812 -3.26953125 6.62890625 C-1.15992374 1.15992374 -1.15992374 1.15992374 0 0 Z " fill="#6BD376" transform="translate(158,156)"/>
<path d="M0 0 C6.6 0 13.2 0 20 0 C19.67 0.66 19.34 1.32 19 2 C13.39 2 7.78 2 2 2 C1.4225 3.299375 0.845 4.59875 0.25 5.9375 C-0.734375 8.15234375 -0.734375 8.15234375 -2 10 C-3.32 10.33 -4.64 10.66 -6 11 C-4.02 7.37 -2.04 3.74 0 0 Z " fill="#59C467" transform="translate(279,270)"/>
<path d="M0 0 C1.32 0.66 2.64 1.32 4 2 C4 3.32 4 4.64 4 6 C2.68 6 1.36 6 0 6 C-0.12117188 6.63808594 -0.24234375 7.27617187 -0.3671875 7.93359375 C-0.53476562 8.75988281 -0.70234375 9.58617187 -0.875 10.4375 C-1.03742188 11.26121094 -1.19984375 12.08492187 -1.3671875 12.93359375 C-1.57601563 13.61550781 -1.78484375 14.29742187 -2 15 C-2.99 15.495 -2.99 15.495 -4 16 C-3.71653722 14.08210287 -3.4228972 12.16570817 -3.125 10.25 C-2.88136719 8.64898437 -2.88136719 8.64898437 -2.6328125 7.015625 C-2.06776118 4.32291129 -1.36577086 2.36427561 0 0 Z " fill="#59CF66" transform="translate(362,177)"/>
<path d="M0 0 C0.99 0.33 1.98 0.66 3 1 C2.67 1.99 2.34 2.98 2 4 C1.34 4 0.68 4 0 4 C-0.33 4.99 -0.66 5.98 -1 7 C-1.66 7 -2.32 7 -3 7 C-3.66 8.32 -4.32 9.64 -5 11 C-6.125 9.25 -6.125 9.25 -7 7 C-6.125 4.75 -6.125 4.75 -5 3 C-4.34 3 -3.68 3 -3 3 C-1.37485532 1.54166642 -1.37485532 1.54166642 0 0 Z " fill="#48CB59" transform="translate(393,305)"/>
<path d="M0 0 C3.40458262 3.89095157 6.24177968 8.11365765 8 13 C7.67 13.66 7.34 14.32 7 15 C3.56668286 12.74123872 2.15207321 11.40552855 0.6875 7.5 C0 4 0 4 0 0 Z " fill="#67CF74" transform="translate(404,138)"/>
<path d="M0 0 C-2.98756368 1.99170912 -5.55424386 3.02907979 -8.9375 4.1875 C-9.97777344 4.55230469 -11.01804687 4.91710937 -12.08984375 5.29296875 C-14.95456052 5.98896034 -16.28981357 6.02529944 -19 5 C-15.27034861 2.96564469 -13.33094958 2 -9 2 C-9 1.34 -9 0.68 -9 0 C-5.67465243 -1.10844919 -3.37817425 -0.84454356 0 0 Z " fill="#7AD485" transform="translate(339,348)"/>
<path d="M0 0 C0.33 0 0.66 0 1 0 C1 2.31 1 4.62 1 7 C3.65228812 8.07525194 6.28368454 9.09456151 9 10 C8.34 11.32 7.68 12.64 7 14 C3.14425105 12.71475035 0.88921747 10.54326264 -1 7 C-0.8125 3.125 -0.8125 3.125 0 0 Z " fill="#63CF70" transform="translate(150,178)"/>
<path d="M0 0 C0.33 0 0.66 0 1 0 C1.86458312 2.93479598 2.71697187 5.87221519 3.5625 8.8125 C3.80935547 9.64587891 4.05621094 10.47925781 4.31054688 11.33789062 C4.65375977 12.54155273 4.65375977 12.54155273 5.00390625 13.76953125 C5.21861572 14.50792236 5.4333252 15.24631348 5.65454102 16.00708008 C6 18 6 18 5 21 C1.07713834 17.07713834 0.25021185 10.06892492 -0.19140625 4.65234375 C-0.18821921 3.10025386 -0.10557941 1.54849804 0 0 Z " fill="#73D381" transform="translate(226,211)"/>
<path d="M0 0 C0.3125 2.8125 0.3125 2.8125 0 6 C-2.3125 7.6875 -2.3125 7.6875 -5 9 C-6.75149165 10.58245275 -6.75149165 10.58245275 -8 12 C-8.66 11.67 -9.32 11.34 -10 11 C-9.06558465 9.72689688 -8.12732889 8.456612 -7.1875 7.1875 C-6.66542969 6.47980469 -6.14335937 5.77210937 -5.60546875 5.04296875 C-1.64244742 0 -1.64244742 0 0 0 Z " fill="#63D173" transform="translate(182,121)"/>
<path d="M0 0 C3.27233819 0.87262352 5.49087971 1.47390904 7.875 3.9375 C9 6 9 6 9 9 C7.68 9.33 6.36 9.66 5 10 C5 10.66 5 11.32 5 12 C4.34 11.67 3.68 11.34 3 11 C3.99 9.68 4.98 8.36 6 7 C5.195625 6.401875 4.39125 5.80375 3.5625 5.1875 C1 3 1 3 0 0 Z " fill="#66D174" transform="translate(174,209)"/>
<path d="M0 0 C1.98 0 3.96 0 6 0 C6.33 0.99 6.66 1.98 7 3 C7.99 3 8.98 3 10 3 C10.33 4.65 10.66 6.3 11 8 C10.01 8.33 9.02 8.66 8 9 C7.608125 8.2575 7.21625 7.515 6.8125 6.75 C4.86961158 3.80216929 2.83531533 2.06901389 0 0 Z " fill="#55C765" transform="translate(236,162)"/>
<path d="M0 0 C0.33 0.66 0.66 1.32 1 2 C2.98 1.67 4.96 1.34 7 1 C3.4912812 4.09592835 0.50802601 5.74194623 -4 7 C-3.6875 4.625 -3.6875 4.625 -3 2 C-2.01 1.34 -1.02 0.68 0 0 Z " fill="#5ECF6B" transform="translate(352,337)"/>
<path d="M0 0 C1.36523593 3.10280894 0.89965502 4.30631624 -0.1875 7.625 C-1.94781917 10.90283569 -2.5458087 11.9280096 -6 13 C-2.86206897 2.86206897 -2.86206897 2.86206897 0 0 Z " fill="#67D079" transform="translate(165,143)"/>
<path d="M0 0 C2.64 0.33 5.28 0.66 8 1 C8.268125 1.804375 8.53625 2.60875 8.8125 3.4375 C9.204375 4.283125 9.59625 5.12875 10 6 C10.99 6.33 11.98 6.66 13 7 C12.01 7.495 12.01 7.495 11 8 C8.3984375 6.6015625 8.3984375 6.6015625 5.375 4.625 C4.37210938 3.97789062 3.36921875 3.33078125 2.3359375 2.6640625 C1.56507813 2.11492187 0.79421875 1.56578125 0 1 C0 0.67 0 0.34 0 0 Z " fill="#6BD075" transform="translate(203,331)"/>
<path d="M0 0 C0.845625 0.350625 1.69125 0.70125 2.5625 1.0625 C7.44468152 2.39400405 11.26354869 1.5788171 16 0 C16 0.99 16 1.98 16 3 C11.03926578 4.32286246 6.08888488 4.08893197 1 4 C0.67 2.68 0.34 1.36 0 0 Z " fill="#78D281" transform="translate(306,281)"/>
<path d="M0 0 C0.33 0 0.66 0 1 0 C1.27573092 2.10094974 1.51978976 4.20607635 1.75 6.3125 C1.88921875 7.48425781 2.0284375 8.65601563 2.171875 9.86328125 C2 13 2 13 0.015625 14.91796875 C-0.64953125 15.27503906 -1.3146875 15.63210937 -2 16 C-2.2396943 10.36718401 -1.38529821 5.45461169 0 0 Z " fill="#67D473" transform="translate(356,195)"/>
<path d="M0 0 C3.79303725 1.00193437 6.71536341 1.81024227 10 4 C9.67 5.65 9.34 7.3 9 9 C7.87105124 8.06725891 6.74699124 7.12859878 5.625 6.1875 C4.99851563 5.66542969 4.37203125 5.14335937 3.7265625 4.60546875 C2 3 2 3 0 0 Z " fill="#5CD06B" transform="translate(182,312)"/>
<path d="M0 0 C-1.62339805 1.70884005 -3.29319053 3.37446717 -5 5 C-5.66 5 -6.32 5 -7 5 C-7.33 7.31 -7.66 9.62 -8 12 C-9.35015859 7.94952424 -8.62084998 5.2079832 -8 1 C-5.07175348 0.02391783 -3.04386724 -0.08226668 0 0 Z " fill="#6FD379" transform="translate(204,162)"/>
<path d="M0 0 C0.66 0.33 1.32 0.66 2 1 C1.34 3.31 0.68 5.62 0 8 C-1.65 7.67 -3.3 7.34 -5 7 C-5 7.66 -5 8.32 -5 9 C-5.66 8.67 -6.32 8.34 -7 8 C-4.79020692 5.18060883 -2.59937954 2.46941056 0 0 Z " fill="#69D477" transform="translate(175,221)"/>
<path d="M0 0 C0.99 0 1.98 0 3 0 C3 0.66 3 1.32 3 2 C3.928125 2.1546875 3.928125 2.1546875 4.875 2.3125 C7 3 7 3 9 6 C8.67 6.99 8.34 7.98 8 9 C1.95057034 4.25855513 1.95057034 4.25855513 0 2 C0 1.34 0 0.68 0 0 Z " fill="#6DD07A" transform="translate(157,192)"/>
<path d="M0 0 C0.99 0.33 1.98 0.66 3 1 C1.85793642 2.50287218 0.71125043 4.00223284 -0.4375 5.5 C-1.39462891 6.75296875 -1.39462891 6.75296875 -2.37109375 8.03125 C-2.90863281 8.6809375 -3.44617188 9.330625 -4 10 C-4.33 10 -4.66 10 -5 10 C-5 8.35 -5 6.7 -5 5 C-3.35 4.34 -1.7 3.68 0 3 C0 2.01 0 1.02 0 0 Z " fill="#77D383" transform="translate(401,296)"/>
<path d="M0 0 C0.99 0.33 1.98 0.66 3 1 C2.34 1 1.68 1 1 1 C1 1.66 1 2.32 1 3 C-1.97 4.65 -4.94 6.3 -8 8 C-8 7.01 -8 6.02 -8 5 C-7.34 5 -6.68 5 -6 5 C-6 4.34 -6 3.68 -6 3 C-4.02 2.67 -2.04 2.34 0 2 C0 1.34 0 0.68 0 0 Z " fill="#7CD387" transform="translate(368,330)"/>
<path d="M0 0 C0.99 0.33 1.98 0.66 3 1 C3 1.66 3 2.32 3 3 C-0.46153846 6 -0.46153846 6 -3 6 C-3.33 6.99 -3.66 7.98 -4 9 C-4.33 7.68 -4.66 6.36 -5 5 C-3.68 4.67 -2.36 4.34 -1 4 C-0.67 2.68 -0.34 1.36 0 0 Z " fill="#72D37B" transform="translate(384,315)"/>
<path d="M0 0 C0.66 0 1.32 0 2 0 C2 0.66 2 1.32 2 2 C2.99 2.33 3.98 2.66 5 3 C5 3.66 5 4.32 5 5 C5.99 5.33 6.98 5.66 8 6 C6 7 6 7 3.4375 6.375 C1 5 1 5 0.1875 2.375 C0.125625 1.59125 0.06375 0.8075 0 0 Z " fill="#75D081" transform="translate(379,110)"/>
<path d="M0 0 C4.15882353 8.02058824 4.15882353 8.02058824 3.625 11.3125 C3.41875 11.869375 3.2125 12.42625 3 13 C2.67 11.35 2.34 9.7 2 8 C1.34 8 0.68 8 0 8 C-0.38063221 5.6739143 -0.71269945 3.33944736 -1 1 C-0.67 0.67 -0.34 0.34 0 0 Z " fill="#82D98C" transform="translate(238,254)"/>
<path d="M0 0 C0 3.21518097 -0.1621112 4.41024759 -2 7 C-5.125 8.25 -5.125 8.25 -8 9 C-7.04270084 7.87411986 -6.08412105 6.7493285 -5.125 5.625 C-4.59132812 4.99851562 -4.05765625 4.37203125 -3.5078125 3.7265625 C-2.38567993 2.44163349 -1.20628025 1.20628025 0 0 Z " fill="#6DD47D" transform="translate(190,112)"/>
<path d="M0 0 C1.32 0 2.64 0 4 0 C4 3.3 4 6.6 4 10 C3.34 8.68 2.68 7.36 2 6 C1.34 5.01 0.68 4.02 0 3 C0 2.01 0 1.02 0 0 Z " fill="#6AD173" transform="translate(154,266)"/>
<path d="M0 0 C2.02350324 3.03525486 2.32124018 4.19426202 2.625 7.6875 C2.69976562 8.49574219 2.77453125 9.30398437 2.8515625 10.13671875 C2.90054688 10.75160156 2.94953125 11.36648437 3 12 C0.89366282 10.29171079 0.06198392 9.47851584 -0.29296875 6.73828125 C-0.25816406 5.93777344 -0.22335938 5.13726562 -0.1875 4.3125 C-0.16042969 3.50425781 -0.13335937 2.69601563 -0.10546875 1.86328125 C-0.07066406 1.24839844 -0.03585938 0.63351563 0 0 Z " fill="#77D283" transform="translate(221,194)"/>
<path d="M0 0 C-0.33 0.99 -0.66 1.98 -1 3 C-3.64 3 -6.28 3 -9 3 C-9 2.34 -9 1.68 -9 1 C-5.92677456 0.08941469 -3.19902639 -0.08886184 0 0 Z " fill="#68CE75" transform="translate(268,76)"/>
<path d="M0 0 C1.62580966 0.11398665 3.25067157 0.24155659 4.875 0.375 C5.77992188 0.44460938 6.68484375 0.51421875 7.6171875 0.5859375 C10 1 10 1 12 3 C7.45194365 3.17835515 4.1205746 2.99785435 0 1 C0 0.67 0 0.34 0 0 Z " fill="#7BD382" transform="translate(247,352)"/>
<path d="M0 0 C0.6875 1.75 0.6875 1.75 1 4 C-0.3125 6.25 -0.3125 6.25 -2 8 C-2.66 8 -3.32 8 -4 8 C-3.50168276 4.31245243 -2.89932357 2.39509338 0 0 Z " fill="#4CC95F" transform="translate(326,276)"/>
<path d="M0 0 C0.66 0.33 1.32 0.66 2 1 C-0.06007659 4.60513403 -2.3513141 7.80331012 -5 11 C-4.44271087 7.65626525 -3.64826111 4.96687001 -2 2 C-1.34 2 -0.68 2 0 2 C0 1.34 0 0.68 0 0 Z " fill="#63D06E" transform="translate(156,165)"/>
<path d="M0 0 C3.05402088 1.52701044 3.65869481 3.95157912 5 7 C5 7.99 5 8.98 5 10 C4.34 10 3.68 10 3 10 C0.96564469 6.27034861 0 4.33094958 0 0 Z " fill="#6FD078" transform="translate(412,153)"/>
<path d="M0 0 C0.66 0 1.32 0 2 0 C1.375 2.4375 1.375 2.4375 0 5 C-3.125 5.8125 -3.125 5.8125 -6 6 C-4 4 -2 2 0 0 Z " fill="#7DD484" transform="translate(204,100)"/>
<path d="M0 0 C2.99324263 1.0975223 3.84610901 1.67682892 5.25 4.625 C5.4975 5.40875 5.745 6.1925 6 7 C5.01 7.495 5.01 7.495 4 8 C4 7.01 4 6.02 4 5 C3.01 4.67 2.02 4.34 1 4 C0.3125 1.9375 0.3125 1.9375 0 0 Z " fill="#7CD086" transform="translate(171,298)"/>
<path d="M0 0 C0.99 0.33 1.98 0.66 3 1 C2.67 1.99 2.34 2.98 2 4 C1.34 4 0.68 4 0 4 C-0.33 4.99 -0.66 5.98 -1 7 C-1.33 7 -1.66 7 -2 7 C-2 5.02 -2 3.04 -2 1 C-1.34 0.67 -0.68 0.34 0 0 Z " fill="#73D57E" transform="translate(393,305)"/>
<path d="M0 0 C0.66 0.33 1.32 0.66 2 1 C1.67 1.99 1.34 2.98 1 4 C0.34 4 -0.32 4 -1 4 C-1 4.66 -1 5.32 -1 6 C-2.65 6.66 -4.3 7.32 -6 8 C-6 7.34 -6 6.68 -6 6 C-4.34997172 4.64613064 -2.6825613 3.31321858 -1 2 C-0.67 1.34 -0.34 0.68 0 0 Z " fill="#7ED88A" transform="translate(166,230)"/>
<path d="M0 0 C0.33 0.66 0.66 1.32 1 2 C0.34 2 -0.32 2 -1 2 C-1.33 2.99 -1.66 3.98 -2 5 C-3.98 5.33 -5.96 5.66 -8 6 C-5.51047079 3.33264727 -3.36591866 1.44253657 0 0 Z " fill="#78D181" transform="translate(214,94)"/>
<path d="M0 0 C2.97 0.495 2.97 0.495 6 1 C6 1.99 6 2.98 6 4 C4.68 4 3.36 4 2 4 C1.34 2.68 0.68 1.36 0 0 Z " fill="#6DCE77" transform="translate(342,87)"/>
<path d="M0 0 C0.99 0.33 1.98 0.66 3 1 C3.33 2.98 3.66 4.96 4 7 C2.35 5.35 0.7 3.7 -1 2 C-0.67 1.34 -0.34 0.68 0 0 Z " fill="#70D278" transform="translate(178,305)"/>
</svg>
